# xmcd CD Database Entry
#
# Track frame offsets:
# 150
# 9251
# 28234
# 50140
# 53151
# 70073
# 88261
#
# Disc length: 1421 seconds
#
# Revision: 4
# Processed by: cddbd v1.5.2PL0 Copyright (c) Steve Scherf et al.
# Submitted via: tcd 2.0b
#
DISCID=5a058b07
DTITLE=シーモネーター&DJ TAKI-SHIT
DYEAR=1900
DGENRE=
TTITLE0=SEAMO ON THE RUN
TTITLE1=OH! SEAMO
TTITLE2=少年時代
TTITLE3=女子大通り
TTITLE4=快楽の海
TTITLE5=OH MY DICK
TTITLE6=OH! SEAMO\n[どっかで聴いたことがあるとかないとかRemix]
EXTD=
EXTT0=
EXTT1=
EXTT2=
EXTT3=
EXTT4=
EXTT5=
EXTT6=
PLAYORDER=
